<?xml version="1.0" encoding="utf-8"?>
<svg version="1.1" xmlns:xlink="http://www.w3.org/1999/xlink" width="17px" height="18px" xmlns="http://www.w3.org/2000/svg">
  <defs>
    <linearGradient gradientUnits="userSpaceOnUse" x1="1.03030303030306" y1="8" x2="17" y2="7.99999999999999" id="LinearGradient8">
      <stop id="Stop9" stop-color="#ffffff" stop-opacity="0.0549019607843137" offset="0" />
      <stop id="Stop10" stop-color="#ffffff" offset="1" />
    </linearGradient>
  </defs>
  <g transform="matrix(1 0 0 1 -14 -6 )">
    <path d="M 10.0662525879917 8.58517034068136  C 10.1835748792271 8.70541082164329  10.2422360248447 8.8436873747495  10.2422360248447 9  C 10.2422360248447 9.1563126252505  10.1835748792271 9.29458917835671  10.0662525879917 9.41482965931864  L 1.86542443064182 17.8196392785571  C 1.74810213940649 17.939879759519  1.61318150448585 18  1.46066252587992 18  C 1.30814354727398 18  1.17322291235335 17.939879759519  1.05590062111801 17.8196392785571  L 0.175983436853002 16.9178356713427  C 0.0586611456176674 16.7975951903808  0 16.6593186372745  0 16.503006012024  C 0 16.3466933867735  0.0586611456176674 16.2084168336673  0.175983436853002 16.0881763527054  L 7.09213250517598 9  L 0.175983436853002 1.91182364729459  C 0.0586611456176674 1.79158316633266  0 1.65330661322645  0 1.49699398797595  C 0 1.34068136272545  0.0586611456176674 1.20240480961924  0.175983436853002 1.08216432865731  L 1.05590062111801 0.180360721442886  C 1.17322291235335 0.0601202404809613  1.30814354727398 0  1.46066252587992 0  C 1.61318150448585 0  1.74810213940649 0.0601202404809613  1.86542443064182 0.180360721442886  L 10.0662525879917 8.58517034068136  Z M 16.824016563147 8.58517034068136  C 16.9413388543823 8.70541082164329  17 8.8436873747495  17 9  C 17 9.1563126252505  16.9413388543823 9.29458917835671  16.824016563147 9.41482965931864  L 8.6231884057971 17.8196392785571  C 8.50586611456177 17.939879759519  8.37094547964113 18  8.2184265010352 18  C 8.06590752242926 18  7.93098688750863 17.939879759519  7.81366459627329 17.8196392785571  L 6.93374741200828 16.9178356713427  C 6.81642512077295 16.7975951903808  6.75776397515528 16.6593186372745  6.75776397515528 16.503006012024  C 6.75776397515528 16.3466933867735  6.81642512077295 16.2084168336673  6.93374741200828 16.0881763527054  L 13.8498964803313 9  L 6.93374741200828 1.91182364729459  C 6.81642512077295 1.79158316633266  6.75776397515528 1.65330661322645  6.75776397515528 1.49699398797595  C 6.75776397515528 1.34068136272545  6.81642512077295 1.20240480961924  6.93374741200828 1.08216432865731  L 7.81366459627329 0.180360721442886  C 7.93098688750863 0.0601202404809613  8.06590752242926 0  8.2184265010352 0  C 8.37094547964113 0  8.50586611456177 0.0601202404809613  8.6231884057971 0.180360721442886  L 16.824016563147 8.58517034068136  Z " fill-rule="nonzero" fill="url(#LinearGradient8)" stroke="none" transform="matrix(1 0 0 1 14 6 )" />
  </g>
</svg>