<svg 
 xmlns="http://www.w3.org/2000/svg"
 xmlns:xlink="http://www.w3.org/1999/xlink"
 width="18px" height="21px">
<defs>
<linearGradient id="PSgrad_0" x1="0%" x2="0%" y1="100%" y2="0%">
  <stop offset="0%" stop-color="rgb(84,0,0)" stop-opacity="0.99608" />
  <stop offset="28%" stop-color="rgb(157,0,9)" stop-opacity="1" />
  <stop offset="100%" stop-color="rgb(230,0,18)" stop-opacity="1" />
</linearGradient>

</defs>
<path fill-rule="evenodd"  fill="url(#PSgrad_0)"
 d="M5.264,6.767 C5.264,4.706 6.936,3.35 8.999,3.35 C11.63,3.35 12.735,4.706 12.735,6.767 C12.735,7.207 12.645,7.621 12.506,8.11 L15.225,8.11 L15.225,6.767 C15.225,3.333 12.437,0.547 8.999,0.547 C5.560,0.547 2.774,3.331 2.774,6.767 L2.774,8.11 L5.493,8.11 C5.354,7.620 5.264,7.205 5.264,6.767 L5.264,6.767 ZM15.225,8.11 L2.774,8.11 C1.398,8.11 0.284,9.126 0.284,10.500 L0.284,17.964 C0.284,19.338 1.398,20.452 2.774,20.452 L15.225,20.452 C16.601,20.452 17.715,19.337 17.715,17.964 L17.715,10.500 C17.715,9.126 16.601,8.11 15.225,8.11 L15.225,8.11 ZM10.245,15.130 L10.245,16.720 C10.245,17.406 9.687,17.964 8.999,17.964 C8.312,17.964 7.754,17.406 7.754,16.720 L7.754,15.131 C7.13,14.699 6.509,13.906 6.509,12.988 C6.509,11.613 7.624,10.500 8.999,10.500 C10.375,10.500 11.490,11.613 11.490,12.988 C11.490,13.906 10.985,14.699 10.245,15.130 L10.245,15.130 Z"/>
</svg>