<svg 
 xmlns="http://www.w3.org/2000/svg"
 xmlns:xlink="http://www.w3.org/1999/xlink"
 width="20px" height="21px">
<defs>
<linearGradient id="PSgrad_0" x1="0%" x2="0%" y1="100%" y2="0%">
  <stop offset="0%" stop-color="rgb(84,0,0)" stop-opacity="0.99608" />
  <stop offset="28%" stop-color="rgb(157,0,9)" stop-opacity="1" />
  <stop offset="100%" stop-color="rgb(230,0,18)" stop-opacity="1" />
</linearGradient>

</defs>
<path fill-rule="evenodd"  fill="url(#PSgrad_0)"
 d="M19.647,17.928 C19.134,14.262 15.535,14.9 15.535,14.9 L12.121,12.551 L12.121,10.745 C12.787,10.407 13.60,8.475 13.60,8.475 C13.825,8.507 13.715,7.34 13.726,6.422 C13.737,5.811 13.410,5.931 13.410,5.931 C13.584,4.763 13.508,3.868 13.508,3.868 C13.49,0.986 10.3,0.953 10.3,0.953 L9.998,1.281 L9.994,0.953 C9.994,0.953 6.949,0.986 6.491,3.868 C6.491,3.868 6.414,4.763 6.589,5.931 C6.589,5.931 6.261,5.811 6.272,6.422 C6.283,7.34 6.174,8.507 6.938,8.475 C6.938,8.475 7.211,10.407 7.878,10.745 L7.878,12.553 L4.464,14.11 C4.464,14.11 0.865,14.264 0.351,17.930 C0.351,17.930 0.248,20.45 1.59,20.45 L18.940,20.45 C20.250,20.43 19.647,17.928 19.647,17.928 L19.647,17.928 Z"/>
</svg>